<svg id="Layer_1" data-name="Layer 1" xmlns="http://www.w3.org/2000/svg" viewBox="0 0 1000 1000"><defs><style>.cls-1{fill:#33271d;}.cls-2{fill:#1b120e;}.cls-3{fill:#fbd8b8;}.cls-4{fill:#051625;}.cls-5{fill:#fff;}.cls-6{fill:#d7b28e;}.cls-7{fill:#1e6366;}.cls-8{fill:#2a8a8e;}.cls-9{fill:#152a3d;}.cls-10{fill:#267d81;}</style></defs><rect class="cls-1" x="475" y="100" width="25" height="25"/><rect class="cls-1" x="475" y="75" width="25" height="25"/><rect class="cls-1" x="475" y="125" width="25" height="25"/><rect class="cls-1" x="500" y="100" width="25" height="25"/><rect class="cls-1" x="500" y="125" width="25" height="25"/><rect class="cls-1" x="525" y="100" width="25" height="25"/><rect class="cls-1" x="525" y="125" width="25" height="25"/><rect class="cls-1" x="550" y="100" width="25" height="25"/><rect class="cls-1" x="550" y="125" width="25" height="25"/><rect class="cls-1" x="575" y="125" width="25" height="25"/><rect class="cls-1" x="450" y="100" width="25" height="25"/><rect class="cls-1" x="450" y="125" width="25" height="25"/><rect class="cls-1" x="425" y="100" width="25" height="25"/><rect class="cls-1" x="425" y="125" width="25" height="25"/><rect class="cls-1" x="400" y="125" width="25" height="25"/><rect class="cls-1" x="575" y="150" width="25" height="25"/><rect class="cls-1" x="400" y="150" width="25" height="25"/><rect class="cls-1" x="575" y="175" width="25" height="25"/><rect class="cls-1" x="400" y="175" width="25" height="25"/><rect class="cls-1" x="375" y="175" width="25" height="25"/><rect class="cls-1" x="375" y="200" width="25" height="25"/><rect class="cls-1" x="375" y="250" width="25" height="25"/><rect class="cls-1" x="375" y="275" width="25" height="25"/><rect class="cls-1" x="600" y="250" width="25" height="25"/><rect class="cls-1" x="600" y="275" width="25" height="25"/><rect class="cls-1" x="575" y="275" width="25" height="25"/><rect class="cls-1" x="575" y="300" width="25" height="25"/><rect class="cls-2" x="575" y="325" width="25" height="25"/><rect class="cls-1" x="550" y="300" width="25" height="25"/><rect class="cls-1" x="550" y="325" width="25" height="25"/><rect class="cls-1" x="600" y="325" width="25" height="25"/><rect class="cls-2" x="600" y="350" width="25" height="25"/><rect class="cls-1" x="600" y="375" width="25" height="25"/><rect class="cls-1" x="625" y="350" width="25" height="25"/><rect class="cls-1" x="425" y="300" width="25" height="25"/><rect class="cls-1" x="400" y="300" width="25" height="25"/><rect class="cls-1" x="350" y="300" width="25" height="25"/><rect class="cls-1" x="600" y="175" width="25" height="25"/><rect class="cls-1" x="600" y="200" width="25" height="25"/><rect class="cls-2" x="400" y="225" width="25" height="25"/><rect class="cls-2" x="400" y="250" width="25" height="25"/><rect class="cls-1" x="400" y="275" width="25" height="25"/><rect class="cls-1" x="375" y="325" width="25" height="25"/><rect class="cls-1" x="375" y="375" width="25" height="25"/><rect class="cls-1" x="400" y="325" width="25" height="25"/><rect class="cls-2" x="400" y="350" width="25" height="25"/><rect class="cls-2" x="425" y="275" width="25" height="25"/><rect class="cls-2" x="425" y="325" width="25" height="25"/><rect class="cls-2" x="450" y="300" width="25" height="25"/><rect class="cls-3" x="475" y="150" width="25" height="25"/><rect class="cls-3" x="500" y="150" width="25" height="25"/><rect class="cls-1" x="525" y="150" width="25" height="25"/><rect class="cls-3" x="525" y="175" width="25" height="25"/><rect class="cls-3" x="550" y="150" width="25" height="25"/><rect class="cls-3" x="550" y="175" width="25" height="25"/><rect class="cls-3" x="450" y="150" width="25" height="25"/><rect class="cls-3" x="475" y="175" width="25" height="25"/><rect class="cls-3" x="500" y="175" width="25" height="25"/><rect class="cls-3" x="450" y="175" width="25" height="25"/><rect class="cls-3" x="425" y="150" width="25" height="25"/><rect class="cls-3" x="425" y="175" width="25" height="25"/><rect class="cls-4" x="425" y="188" width="25" height="12"/><rect class="cls-4" x="450" y="188" width="25" height="12"/><rect class="cls-4" x="525" y="188" width="25" height="12"/><rect class="cls-4" x="550" y="188" width="25" height="12"/><rect class="cls-3" x="550" y="200" width="25" height="25"/><rect class="cls-3" x="575" y="200" width="25" height="25"/><rect class="cls-3" x="475" y="200" width="25" height="25"/><rect class="cls-3" x="500" y="200" width="25" height="25"/><rect class="cls-3" x="425" y="200" width="25" height="25"/><rect class="cls-3" x="400" y="200" width="25" height="25"/><rect class="cls-3" x="475" y="200" width="25" height="25"/><rect class="cls-3" x="525" y="225" width="25" height="25"/><rect class="cls-3" x="550" y="225" width="25" height="25"/><rect class="cls-3" x="475" y="225" width="25" height="25"/><rect class="cls-3" x="500" y="225" width="25" height="25"/><rect class="cls-3" x="450" y="225" width="25" height="25"/><rect class="cls-3" x="425" y="225" width="25" height="25"/><rect class="cls-3" x="475" y="225" width="25" height="25"/><rect class="cls-3" x="525" y="250" width="25" height="25"/><rect class="cls-3" x="550" y="250" width="25" height="25"/><rect class="cls-2" x="575" y="225" width="25" height="25"/><rect class="cls-1" x="575" y="250" width="25" height="25"/><rect class="cls-3" x="475" y="250" width="25" height="25"/><rect class="cls-5" x="500" y="250" width="25" height="25"/><rect class="cls-3" x="450" y="250" width="25" height="25"/><rect class="cls-3" x="425" y="250" width="25" height="25"/><rect class="cls-5" x="475" y="250" width="25" height="25"/><rect class="cls-3" x="525" y="275" width="25" height="25"/><rect class="cls-3" x="500" y="275" width="25" height="25"/><rect class="cls-3" x="450" y="275" width="25" height="25"/><rect class="cls-2" x="550" y="275" width="25" height="25"/><rect class="cls-2" x="525" y="300" width="25" height="25"/><rect class="cls-3" x="475" y="275" width="25" height="25"/><rect class="cls-6" x="475" y="300" width="25" height="25"/><rect class="cls-6" x="500" y="300" width="25" height="25"/><rect class="cls-3" x="475" y="325" width="25" height="25"/><rect class="cls-3" x="500" y="325" width="25" height="25"/><rect class="cls-3" x="475" y="350" width="25" height="25"/><rect class="cls-7" x="450" y="350" width="25" height="25"/><rect class="cls-8" x="425" y="350" width="25" height="25"/><rect class="cls-8" x="575" y="375" width="25" height="25"/><rect class="cls-8" x="550" y="350" width="25" height="25"/><rect class="cls-8" x="400" y="375" width="25" height="25"/><rect class="cls-7" x="525" y="350" width="25" height="25"/><rect class="cls-3" x="500" y="350" width="25" height="25"/><rect class="cls-7" x="500" y="375" width="25" height="25"/><rect class="cls-8" x="525" y="375" width="25" height="25"/><rect class="cls-8" x="550" y="375" width="25" height="25"/><rect class="cls-8" x="425" y="375" width="25" height="25"/><rect class="cls-8" x="450" y="375" width="25" height="25"/><rect class="cls-7" x="475" y="375" width="25" height="25"/><rect class="cls-8" x="400" y="400" width="25" height="25"/><rect class="cls-8" x="500" y="400" width="25" height="25"/><rect class="cls-8" x="525" y="400" width="25" height="25"/><rect class="cls-8" x="550" y="400" width="25" height="25"/><rect class="cls-8" x="425" y="400" width="25" height="25"/><rect class="cls-8" x="450" y="400" width="25" height="25"/><rect class="cls-8" x="475" y="400" width="25" height="25"/><rect class="cls-3" x="400" y="425" width="25" height="25"/><rect class="cls-8" x="500" y="425" width="25" height="25"/><rect class="cls-8" x="550" y="500" width="25" height="25"/><rect class="cls-8" x="525" y="500" width="25" height="25"/><rect class="cls-8" x="425" y="425" width="25" height="25"/><rect class="cls-8" x="450" y="425" width="25" height="25"/><rect class="cls-8" x="475" y="425" width="25" height="25"/><rect class="cls-3" x="400" y="450" width="25" height="25"/><rect class="cls-7" x="500" y="450" width="25" height="25"/><rect class="cls-7" x="550" y="475" width="25" height="25"/><rect class="cls-7" x="525" y="475" width="25" height="25"/><rect class="cls-7" x="450" y="525" width="25" height="25"/><rect class="cls-7" x="425" y="525" width="25" height="25"/><rect class="cls-7" x="475" y="450" width="25" height="25"/><rect class="cls-3" x="400" y="475" width="25" height="25"/><rect class="cls-8" x="500" y="475" width="25" height="25"/><rect class="cls-8" x="550" y="450" width="25" height="25"/><rect class="cls-8" x="525" y="450" width="25" height="25"/><rect class="cls-8" x="450" y="500" width="25" height="25"/><rect class="cls-8" x="425" y="500" width="25" height="25"/><rect class="cls-8" x="475" y="475" width="25" height="25"/><rect class="cls-3" x="400" y="500" width="25" height="25"/><rect class="cls-7" x="500" y="500" width="25" height="25"/><rect class="cls-7" x="550" y="425" width="25" height="25"/><rect class="cls-7" x="525" y="425" width="25" height="25"/><rect class="cls-7" x="450" y="475" width="25" height="25"/><rect class="cls-7" x="425" y="475" width="25" height="25"/><rect class="cls-7" x="475" y="500" width="25" height="25"/><rect class="cls-3" x="400" y="525" width="25" height="25"/><rect class="cls-8" x="500" y="525" width="25" height="25"/><rect class="cls-8" x="525" y="525" width="25" height="25"/><rect class="cls-8" x="550" y="525" width="25" height="25"/><rect class="cls-8" x="450" y="450" width="25" height="25"/><rect class="cls-8" x="425" y="450" width="25" height="25"/><rect class="cls-8" x="475" y="525" width="25" height="25"/><rect class="cls-3" x="400" y="550" width="25" height="25"/><rect class="cls-8" x="500" y="550" width="25" height="25"/><rect class="cls-8" x="525" y="550" width="25" height="25"/><rect class="cls-8" x="550" y="550" width="25" height="25"/><rect class="cls-8" x="425" y="550" width="25" height="25"/><rect class="cls-8" x="450" y="550" width="25" height="25"/><rect class="cls-8" x="475" y="550" width="25" height="25"/><rect class="cls-3" x="400" y="575" width="25" height="25"/><rect class="cls-8" x="500" y="575" width="25" height="25"/><rect class="cls-8" x="525" y="575" width="25" height="25"/><rect class="cls-8" x="550" y="575" width="25" height="25"/><rect class="cls-8" x="425" y="575" width="25" height="25"/><rect class="cls-8" x="450" y="575" width="25" height="25"/><rect class="cls-8" x="475" y="575" width="25" height="25"/><rect class="cls-3" x="400" y="600" width="25" height="25"/><rect class="cls-3" x="400" y="625" width="25" height="25"/><rect class="cls-4" x="500" y="600" width="25" height="25"/><rect class="cls-4" x="525" y="600" width="25" height="25"/><rect class="cls-4" x="550" y="600" width="25" height="25"/><rect class="cls-4" x="425" y="600" width="25" height="25"/><rect class="cls-4" x="450" y="600" width="25" height="25"/><rect class="cls-4" x="475" y="600" width="25" height="25"/><rect class="cls-9" x="500" y="625" width="25" height="25"/><rect class="cls-4" x="525" y="625" width="25" height="25"/><rect class="cls-4" x="550" y="625" width="25" height="25"/><rect class="cls-4" x="425" y="625" width="25" height="25"/><rect class="cls-4" x="450" y="625" width="25" height="25"/><rect class="cls-4" x="475" y="625" width="25" height="25"/><rect class="cls-9" x="500" y="650" width="25" height="25"/><rect class="cls-4" x="525" y="650" width="25" height="25"/><rect class="cls-4" x="550" y="650" width="25" height="25"/><rect class="cls-4" x="425" y="650" width="25" height="25"/><rect class="cls-4" x="450" y="650" width="25" height="25"/><rect class="cls-4" x="475" y="650" width="25" height="25"/><rect class="cls-9" x="500" y="675" width="25" height="25"/><rect class="cls-4" x="525" y="675" width="25" height="25"/><rect class="cls-4" x="550" y="675" width="25" height="25"/><rect class="cls-4" x="425" y="675" width="25" height="25"/><rect class="cls-4" x="450" y="675" width="25" height="25"/><rect class="cls-4" x="475" y="675" width="25" height="25"/><rect class="cls-9" x="500" y="700" width="25" height="25"/><rect class="cls-4" x="525" y="700" width="25" height="25"/><rect class="cls-4" x="550" y="700" width="25" height="25"/><rect class="cls-9" x="500" y="725" width="25" height="25"/><rect class="cls-4" x="525" y="725" width="25" height="25"/><rect class="cls-4" x="550" y="725" width="25" height="25"/><rect class="cls-9" x="500" y="750" width="25" height="25"/><rect class="cls-4" x="550" y="750" width="25" height="25"/><rect class="cls-9" x="500" y="775" width="25" height="25"/><rect class="cls-4" x="550" y="775" width="25" height="25"/><rect class="cls-4" x="525" y="750" width="25" height="25"/><rect class="cls-3" x="450" y="750" width="25" height="25"/><rect class="cls-6" x="450" y="725" width="25" height="25"/><rect class="cls-6" x="450" y="700" width="25" height="25"/><rect class="cls-6" x="525" y="800" width="25" height="25"/><rect class="cls-3" x="450" y="775" width="25" height="25"/><rect class="cls-4" x="525" y="775" width="25" height="25"/><rect class="cls-3" x="525" y="825" width="25" height="25"/><rect class="cls-3" x="525" y="850" width="25" height="25"/><rect class="cls-3" x="525" y="875" width="25" height="25"/><rect class="cls-4" x="525" y="900" width="25" height="25"/><rect class="cls-4" x="550" y="900" width="25" height="25"/><rect class="cls-4" x="450" y="800" width="25" height="25"/><rect class="cls-4" x="425" y="800" width="25" height="25"/><rect class="cls-4" x="475" y="200" width="25" height="12"/><rect class="cls-4" x="475" y="188" width="12" height="37"/><rect class="cls-4" x="513" y="188" width="12" height="37"/><rect class="cls-4" x="500" y="200" width="25" height="12"/><rect class="cls-4" x="450" y="188" width="37" height="37"/><rect class="cls-4" x="513" y="188" width="37" height="37"/><rect class="cls-10" x="575" y="400" width="25" height="25"/><rect class="cls-7" x="575" y="425" width="25" height="25"/><rect class="cls-6" x="575" y="450" width="25" height="25"/><rect class="cls-6" x="575" y="475" width="25" height="25"/><rect class="cls-3" x="575" y="500" width="25" height="25"/><rect class="cls-3" x="575" y="525" width="25" height="25"/><rect class="cls-3" x="575" y="550" width="25" height="25"/><rect class="cls-4" x="525" y="575" width="25" height="25"/><rect class="cls-4" x="550" y="575" width="25" height="25"/><rect class="cls-8" x="425" y="600" width="25" height="25"/><rect class="cls-8" x="450" y="600" width="25" height="25"/></svg>